<?xml version="1.0" encoding="UTF-8"?> <svg xmlns="http://www.w3.org/2000/svg" id="Слой_1" data-name="Слой 1" viewBox="0 0 687 116.14"> <defs> <style>.cls-1{fill:#b5a38a;}</style> </defs> <title>bb logo</title> <polygon class="cls-1" points="651.04 14.47 687 14.47 687 3.33 639.06 3.33 639.06 114 687 114 687 102.98 650.02 102.98 650.02 53.03 687 53.03 687 42.01 650.02 42.01 650.02 14.47 651.04 14.47"></polygon> <polygon class="cls-1" points="595.71 3.33 595.71 40.22 549.04 0 549.04 114 559.88 114 559.88 23.7 595.71 53.54 595.71 114.13 606.8 114.13 606.8 3.33 595.71 3.33"></polygon> <path class="cls-1" d="M468,104.9C442.57,105,422,84.28,422,58.54a46.19,46.19,0,0,1,46-46.24c24.87-.13,45.78,21,45.78,46.11C513.85,84,493.32,104.9,468,104.9ZM525.2,55.59c-1.28-30.1-27-54.57-57.51-54.44-30,.13-55.72,24.08-57.12,53.29-1.53,32.28,21,58.79,52.53,61.61h9.69A57.87,57.87,0,0,0,525.2,55.59Z"></path> <path class="cls-1" d="M382.77,84.41c-.25,10.5-8.67,18.44-20.4,18.44h-7.14V63.66h6C375.38,63.66,383,73,382.77,84.41ZM355.23,14.47h2.93c12.12,0,21.42,8,21.42,19.22S371.81,53,359.69,53H355.1V14.47Zm19.25,43.3c13.14-6.15,18.11-18.7,15.18-31.13-2.81-12.17-15.18-23.31-31.5-23.31H344.39v110.8h15.3c16.71,0,30-10,33.15-23.83A27.14,27.14,0,0,0,374.48,57.77Z"></path> <path class="cls-1" d="M292.88,54.31l30.35-51H310.6L282.55,50.72V3.33H271.46V114h7.27a3,3,0,0,0,1.53,0h2.16V73.27l4.09-7.69,29.19,48.55h12.63Z"></path> <path class="cls-1" d="M202.35,1.79C176,5.51,154.66,30,154.15,56.36c-.51,29.2,18.75,53.41,46.54,58.79a57.59,57.59,0,0,0,45.52-10.76,26,26,0,0,0,3.19-2.56L242,93.12c-.26.26-.64.38-.9.77-11.22,9.48-24.35,12.94-38.76,10C183.35,100,169.2,84.79,166,65.45,163,47,172.39,28.05,189.22,18.06,204.9,9,225.94,10.63,240.6,22.8c.13.13.26.26.39.26l6.63-9.1C234.36,3.2,219.18-.64,202.35,1.79Z"></path> <path class="cls-1" d="M80.2,88.64l22.19-59.18L124.7,88.64ZM102.39,0,59,114.13H70l6.38-16.27h51.76l6.12,16.27H146Z"></path> <path class="cls-1" d="M38.38,84.41c-.26,10.5-8.67,18.44-20.4,18.44H10.84V63.66h6C31,63.66,38.63,73,38.38,84.41ZM10.84,14.47h2.93c12.11,0,21.42,8,21.42,19.22S27.41,53,15.3,53H10.71V14.47Zm19.25,43.3c13.13-6.15,18.11-18.7,15.17-31.13C42.46,14.47,30.09,3.33,13.77,3.33H0v110.8H15.3c16.7,0,30-10,33.15-23.83A27.14,27.14,0,0,0,30.09,57.77Z"></path> </svg> 